<mxfile host="app.diagrams.net" agent="Mozilla/5.0 (Windows NT 10.0; Win64; x64) AppleWebKit/537.36 (KHTML, like Gecko) Chrome/138.0.0.0 Safari/537.36" scale="1" border="0" version="27.1.4">
  <diagram name="Page-1" id="bxmt5OmR7mhqBll5KJgz">
    <mxGraphModel dx="1864" dy="1944" grid="1" gridSize="10" guides="1" tooltips="1" connect="1" arrows="1" fold="1" page="1" pageScale="1" pageWidth="850" pageHeight="1100" math="0" shadow="0">
      <root>
        <mxCell id="0" />
        <mxCell id="1" parent="0" />
        <mxCell id="v3M7lqjooFDRWO9AKOZ7-1" value="Translate sequences" style="rounded=1;whiteSpace=wrap;html=1;absoluteArcSize=1;arcSize=14;strokeWidth=2;fillColor=#dae8fc;strokeColor=#6c8ebf;" parent="1" vertex="1">
          <mxGeometry x="106" y="-200" width="80" height="80" as="geometry" />
        </mxCell>
        <mxCell id="v3M7lqjooFDRWO9AKOZ7-2" value="Query&lt;div&gt;Schema&lt;/div&gt;" style="strokeWidth=2;html=1;shape=mxgraph.flowchart.multi-document;whiteSpace=wrap;fillColor=#e1d5e7;strokeColor=#9673a6;" parent="1" vertex="1">
          <mxGeometry x="470" y="-340" width="88" height="60" as="geometry" />
        </mxCell>
        <mxCell id="v3M7lqjooFDRWO9AKOZ7-4" value="Subject&amp;nbsp;&lt;div&gt;Schema&lt;/div&gt;" style="strokeWidth=2;html=1;shape=mxgraph.flowchart.multi-document;whiteSpace=wrap;fillColor=#e1d5e7;strokeColor=#9673a6;" parent="1" vertex="1">
          <mxGeometry x="120" y="-340" width="88" height="60" as="geometry" />
        </mxCell>
        <mxCell id="7UviSky1n7xma9Ypp7IQ-27" style="edgeStyle=orthogonalEdgeStyle;rounded=0;orthogonalLoop=1;jettySize=auto;html=1;entryX=0.5;entryY=0;entryDx=0;entryDy=0;exitX=0.5;exitY=0.88;exitDx=0;exitDy=0;exitPerimeter=0;" edge="1" parent="1" source="v3M7lqjooFDRWO9AKOZ7-9" target="v3M7lqjooFDRWO9AKOZ7-24">
          <mxGeometry relative="1" as="geometry">
            <Array as="points">
              <mxPoint x="146" y="110" />
              <mxPoint x="350" y="110" />
            </Array>
          </mxGeometry>
        </mxCell>
        <mxCell id="v3M7lqjooFDRWO9AKOZ7-9" value="Subject Translations" style="strokeWidth=2;html=1;shape=mxgraph.flowchart.multi-document;whiteSpace=wrap;fillColor=#f8cecc;strokeColor=#b85450;" parent="1" vertex="1">
          <mxGeometry x="91" y="-80" width="110" height="80" as="geometry" />
        </mxCell>
        <mxCell id="7UviSky1n7xma9Ypp7IQ-26" style="edgeStyle=orthogonalEdgeStyle;rounded=0;orthogonalLoop=1;jettySize=auto;html=1;entryX=0.5;entryY=0;entryDx=0;entryDy=0;exitX=0.5;exitY=0.88;exitDx=0;exitDy=0;exitPerimeter=0;" edge="1" parent="1" source="v3M7lqjooFDRWO9AKOZ7-13" target="v3M7lqjooFDRWO9AKOZ7-24">
          <mxGeometry relative="1" as="geometry">
            <Array as="points">
              <mxPoint x="514" y="110" />
              <mxPoint x="350" y="110" />
            </Array>
          </mxGeometry>
        </mxCell>
        <mxCell id="v3M7lqjooFDRWO9AKOZ7-13" value="Query&amp;nbsp;&lt;div&gt;Translations&lt;/div&gt;" style="strokeWidth=2;html=1;shape=mxgraph.flowchart.multi-document;whiteSpace=wrap;fillColor=#f8cecc;strokeColor=#b85450;" parent="1" vertex="1">
          <mxGeometry x="459" y="-80" width="110" height="80" as="geometry" />
        </mxCell>
        <mxCell id="v3M7lqjooFDRWO9AKOZ7-24" value="Run BLASTp&amp;nbsp;&lt;div&gt;rep vs rep&lt;div&gt;&lt;span style=&quot;font-weight: 400;&quot;&gt;(round 3)&lt;/span&gt;&lt;/div&gt;&lt;/div&gt;" style="rounded=1;whiteSpace=wrap;html=1;absoluteArcSize=1;arcSize=14;strokeWidth=2;fillColor=#dae8fc;strokeColor=#6c8ebf;fontStyle=1" parent="1" vertex="1">
          <mxGeometry x="300" y="130" width="100" height="100" as="geometry" />
        </mxCell>
        <mxCell id="v3M7lqjooFDRWO9AKOZ7-30" value="&lt;span style=&quot;background-color: transparent; color: light-dark(rgb(0, 0, 0), rgb(255, 255, 255));&quot;&gt;Match_Schemas&lt;/span&gt;&lt;div&gt;&lt;span style=&quot;background-color: transparent; color: light-dark(rgb(0, 0, 0), rgb(255, 255, 255));&quot;&gt;_Results.tsv&lt;/span&gt;&lt;/div&gt;" style="strokeWidth=2;html=1;shape=mxgraph.flowchart.document2;whiteSpace=wrap;size=0.25;fillColor=#d5e8d4;strokeColor=#82b366;" parent="1" vertex="1">
          <mxGeometry x="870" width="100" height="60" as="geometry" />
        </mxCell>
        <mxCell id="BJneLO5AT9rQKqXg1MKZ-1" value="Translate sequences" style="rounded=1;whiteSpace=wrap;html=1;absoluteArcSize=1;arcSize=14;strokeWidth=2;fillColor=#dae8fc;strokeColor=#6c8ebf;" parent="1" vertex="1">
          <mxGeometry x="474" y="-200" width="80" height="80" as="geometry" />
        </mxCell>
        <mxCell id="BJneLO5AT9rQKqXg1MKZ-4" style="edgeStyle=orthogonalEdgeStyle;rounded=0;orthogonalLoop=1;jettySize=auto;html=1;entryX=0.5;entryY=0;entryDx=0;entryDy=0;entryPerimeter=0;" parent="1" target="v3M7lqjooFDRWO9AKOZ7-9" edge="1">
          <mxGeometry relative="1" as="geometry">
            <mxPoint x="146" y="-90" as="sourcePoint" />
          </mxGeometry>
        </mxCell>
        <mxCell id="BJneLO5AT9rQKqXg1MKZ-33" value="Processes" style="rounded=0;whiteSpace=wrap;html=1;fillColor=#dae8fc;strokeColor=#6c8ebf;" parent="1" vertex="1">
          <mxGeometry x="920" y="-280" width="120" height="60" as="geometry" />
        </mxCell>
        <mxCell id="BJneLO5AT9rQKqXg1MKZ-34" value="Temporary files" style="rounded=0;whiteSpace=wrap;html=1;fillColor=#f8cecc;strokeColor=#b85450;" parent="1" vertex="1">
          <mxGeometry x="920" y="-200" width="120" height="60" as="geometry" />
        </mxCell>
        <mxCell id="BJneLO5AT9rQKqXg1MKZ-35" value="Input files" style="rounded=0;whiteSpace=wrap;html=1;fillColor=#e1d5e7;strokeColor=#9673a6;" parent="1" vertex="1">
          <mxGeometry x="920" y="-360" width="120" height="60" as="geometry" />
        </mxCell>
        <mxCell id="BJneLO5AT9rQKqXg1MKZ-36" value="Output files" style="rounded=0;whiteSpace=wrap;html=1;fillColor=#d5e8d4;strokeColor=#82b366;" parent="1" vertex="1">
          <mxGeometry x="920" y="-120" width="120" height="60" as="geometry" />
        </mxCell>
        <mxCell id="BJneLO5AT9rQKqXg1MKZ-37" value="Color description:" style="text;html=1;align=center;verticalAlign=middle;resizable=0;points=[];autosize=1;strokeColor=none;fillColor=none;" parent="1" vertex="1">
          <mxGeometry x="820" y="-390" width="110" height="30" as="geometry" />
        </mxCell>
        <mxCell id="-6ODBfF8vpPR5T03z-hk-1" value="&lt;b&gt;Protein hash vs hash matches&lt;/b&gt;&lt;div&gt;(round 2)&lt;/div&gt;" style="rounded=1;whiteSpace=wrap;html=1;absoluteArcSize=1;arcSize=14;strokeWidth=2;fillColor=#dae8fc;strokeColor=#6c8ebf;" parent="1" vertex="1">
          <mxGeometry x="300" y="-20" width="100" height="100" as="geometry" />
        </mxCell>
        <mxCell id="-6ODBfF8vpPR5T03z-hk-6" value="Run BLASTp&amp;nbsp;&lt;div&gt;rep vs alleles&lt;div&gt;&lt;span style=&quot;font-weight: 400;&quot;&gt;(round 4 optional)&lt;/span&gt;&lt;/div&gt;&lt;/div&gt;" style="rounded=1;whiteSpace=wrap;html=1;absoluteArcSize=1;arcSize=14;strokeWidth=2;fillColor=#dae8fc;strokeColor=#6c8ebf;fontStyle=1" parent="1" vertex="1">
          <mxGeometry x="300" y="290" width="100" height="100" as="geometry" />
        </mxCell>
        <mxCell id="5TrfwjtMTBCjRm45PCtT-1" value="&lt;b&gt;DNA hash vs hash matches&lt;/b&gt;&lt;div&gt;(round 1)&lt;/div&gt;" style="rounded=1;whiteSpace=wrap;html=1;absoluteArcSize=1;arcSize=14;strokeWidth=2;fillColor=#dae8fc;strokeColor=#6c8ebf;" parent="1" vertex="1">
          <mxGeometry x="300" y="-360" width="100" height="100" as="geometry" />
        </mxCell>
        <mxCell id="nj1rMsaSt0rSjp6L2qjK-2" style="edgeStyle=orthogonalEdgeStyle;rounded=0;orthogonalLoop=1;jettySize=auto;html=1;exitX=1;exitY=0.5;exitDx=0;exitDy=0;exitPerimeter=0;entryX=0;entryY=0.5;entryDx=0;entryDy=0;" parent="1" source="v3M7lqjooFDRWO9AKOZ7-4" target="5TrfwjtMTBCjRm45PCtT-1" edge="1">
          <mxGeometry relative="1" as="geometry">
            <mxPoint x="260" y="50" as="sourcePoint" />
            <mxPoint x="250" y="-80" as="targetPoint" />
          </mxGeometry>
        </mxCell>
        <mxCell id="nj1rMsaSt0rSjp6L2qjK-3" style="edgeStyle=orthogonalEdgeStyle;rounded=0;orthogonalLoop=1;jettySize=auto;html=1;entryX=1;entryY=0.5;entryDx=0;entryDy=0;exitX=0;exitY=0.5;exitDx=0;exitDy=0;exitPerimeter=0;" parent="1" source="v3M7lqjooFDRWO9AKOZ7-2" target="5TrfwjtMTBCjRm45PCtT-1" edge="1">
          <mxGeometry relative="1" as="geometry">
            <mxPoint x="270" y="60" as="sourcePoint" />
            <mxPoint x="307" y="60" as="targetPoint" />
          </mxGeometry>
        </mxCell>
        <mxCell id="nj1rMsaSt0rSjp6L2qjK-4" value="Remove matched Loci" style="rounded=1;whiteSpace=wrap;html=1;absoluteArcSize=1;arcSize=14;strokeWidth=2;fillColor=#dae8fc;strokeColor=#6c8ebf;" parent="1" vertex="1">
          <mxGeometry x="210" y="-250" width="72" height="70" as="geometry" />
        </mxCell>
        <mxCell id="nj1rMsaSt0rSjp6L2qjK-5" style="edgeStyle=orthogonalEdgeStyle;rounded=0;orthogonalLoop=1;jettySize=auto;html=1;entryX=1;entryY=0.5;entryDx=0;entryDy=0;" parent="1" target="nj1rMsaSt0rSjp6L2qjK-4" edge="1">
          <mxGeometry relative="1" as="geometry">
            <mxPoint x="290" y="-215" as="sourcePoint" />
            <mxPoint x="297" y="50" as="targetPoint" />
          </mxGeometry>
        </mxCell>
        <mxCell id="nj1rMsaSt0rSjp6L2qjK-6" style="edgeStyle=orthogonalEdgeStyle;rounded=0;orthogonalLoop=1;jettySize=auto;html=1;entryX=0.61;entryY=0.861;entryDx=0;entryDy=0;entryPerimeter=0;" parent="1" target="v3M7lqjooFDRWO9AKOZ7-4" edge="1">
          <mxGeometry relative="1" as="geometry">
            <mxPoint x="174" y="-280" as="sourcePoint" />
            <mxPoint x="307" y="60" as="targetPoint" />
          </mxGeometry>
        </mxCell>
        <mxCell id="nj1rMsaSt0rSjp6L2qjK-7" value="hashes_dna&lt;div&gt;_matches.tsv&lt;/div&gt;" style="strokeWidth=2;html=1;shape=mxgraph.flowchart.multi-document;whiteSpace=wrap;fillColor=#f8cecc;strokeColor=#b85450;" parent="1" vertex="1">
          <mxGeometry x="640" y="-250" width="110" height="60" as="geometry" />
        </mxCell>
        <mxCell id="nj1rMsaSt0rSjp6L2qjK-8" style="edgeStyle=orthogonalEdgeStyle;rounded=0;orthogonalLoop=1;jettySize=auto;html=1;entryX=0;entryY=0.5;entryDx=0;entryDy=0;entryPerimeter=0;exitX=0.75;exitY=1;exitDx=0;exitDy=0;" parent="1" source="5TrfwjtMTBCjRm45PCtT-1" target="nj1rMsaSt0rSjp6L2qjK-7" edge="1">
          <mxGeometry relative="1" as="geometry">
            <mxPoint x="260" y="50" as="sourcePoint" />
            <mxPoint x="297" y="50" as="targetPoint" />
          </mxGeometry>
        </mxCell>
        <mxCell id="nj1rMsaSt0rSjp6L2qjK-9" style="edgeStyle=orthogonalEdgeStyle;rounded=0;orthogonalLoop=1;jettySize=auto;html=1;entryX=0.5;entryY=0;entryDx=0;entryDy=0;" parent="1" target="v3M7lqjooFDRWO9AKOZ7-1" edge="1">
          <mxGeometry relative="1" as="geometry">
            <mxPoint x="146" y="-210" as="sourcePoint" />
            <mxPoint x="170" y="-30" as="targetPoint" />
          </mxGeometry>
        </mxCell>
        <mxCell id="nj1rMsaSt0rSjp6L2qjK-10" style="edgeStyle=orthogonalEdgeStyle;rounded=0;orthogonalLoop=1;jettySize=auto;html=1;entryX=0.5;entryY=0;entryDx=0;entryDy=0;" parent="1" target="BJneLO5AT9rQKqXg1MKZ-1" edge="1">
          <mxGeometry relative="1" as="geometry">
            <mxPoint x="514" y="-210" as="sourcePoint" />
            <mxPoint x="162" y="-20" as="targetPoint" />
          </mxGeometry>
        </mxCell>
        <mxCell id="nj1rMsaSt0rSjp6L2qjK-12" style="edgeStyle=orthogonalEdgeStyle;rounded=0;orthogonalLoop=1;jettySize=auto;html=1;entryX=0.5;entryY=0;entryDx=0;entryDy=0;exitX=1;exitY=0.5;exitDx=0;exitDy=0;exitPerimeter=0;" parent="1" source="v3M7lqjooFDRWO9AKOZ7-9" target="-6ODBfF8vpPR5T03z-hk-1" edge="1">
          <mxGeometry relative="1" as="geometry">
            <mxPoint x="385" y="-290" as="sourcePoint" />
            <mxPoint x="630" y="-245" as="targetPoint" />
          </mxGeometry>
        </mxCell>
        <mxCell id="nj1rMsaSt0rSjp6L2qjK-13" style="edgeStyle=orthogonalEdgeStyle;rounded=0;orthogonalLoop=1;jettySize=auto;html=1;entryX=0.5;entryY=0;entryDx=0;entryDy=0;exitX=0;exitY=0.5;exitDx=0;exitDy=0;exitPerimeter=0;" parent="1" source="v3M7lqjooFDRWO9AKOZ7-13" target="-6ODBfF8vpPR5T03z-hk-1" edge="1">
          <mxGeometry relative="1" as="geometry">
            <mxPoint x="395" y="-280" as="sourcePoint" />
            <mxPoint x="640" y="-235" as="targetPoint" />
          </mxGeometry>
        </mxCell>
        <mxCell id="nj1rMsaSt0rSjp6L2qjK-14" value="Remove matched Loci" style="rounded=1;whiteSpace=wrap;html=1;absoluteArcSize=1;arcSize=14;strokeWidth=2;fillColor=#dae8fc;strokeColor=#6c8ebf;" parent="1" vertex="1">
          <mxGeometry x="200" y="-5" width="72" height="70" as="geometry" />
        </mxCell>
        <mxCell id="nj1rMsaSt0rSjp6L2qjK-15" style="edgeStyle=orthogonalEdgeStyle;rounded=0;orthogonalLoop=1;jettySize=auto;html=1;entryX=1;entryY=0.5;entryDx=0;entryDy=0;" parent="1" target="nj1rMsaSt0rSjp6L2qjK-14" edge="1">
          <mxGeometry relative="1" as="geometry">
            <mxPoint x="280" y="30" as="sourcePoint" />
            <mxPoint x="272" y="320" as="targetPoint" />
          </mxGeometry>
        </mxCell>
        <mxCell id="nj1rMsaSt0rSjp6L2qjK-16" style="edgeStyle=orthogonalEdgeStyle;rounded=0;orthogonalLoop=1;jettySize=auto;html=1;entryX=0.701;entryY=0.839;entryDx=0;entryDy=0;entryPerimeter=0;" parent="1" target="v3M7lqjooFDRWO9AKOZ7-9" edge="1">
          <mxGeometry relative="1" as="geometry">
            <mxPoint x="168" as="sourcePoint" />
            <mxPoint x="290" y="115" as="targetPoint" />
          </mxGeometry>
        </mxCell>
        <mxCell id="nj1rMsaSt0rSjp6L2qjK-17" value="hashes_prot&lt;div&gt;_matches.tsv&lt;/div&gt;" style="strokeWidth=2;html=1;shape=mxgraph.flowchart.multi-document;whiteSpace=wrap;fillColor=#f8cecc;strokeColor=#b85450;" parent="1" vertex="1">
          <mxGeometry x="640" width="110" height="60" as="geometry" />
        </mxCell>
        <mxCell id="nj1rMsaSt0rSjp6L2qjK-18" style="edgeStyle=orthogonalEdgeStyle;rounded=0;orthogonalLoop=1;jettySize=auto;html=1;entryX=0;entryY=0.5;entryDx=0;entryDy=0;entryPerimeter=0;exitX=1;exitY=0.5;exitDx=0;exitDy=0;" parent="1" source="-6ODBfF8vpPR5T03z-hk-1" target="nj1rMsaSt0rSjp6L2qjK-17" edge="1">
          <mxGeometry relative="1" as="geometry">
            <mxPoint x="450.00000000000017" y="41" as="sourcePoint" />
            <mxPoint x="348.7" y="315" as="targetPoint" />
          </mxGeometry>
        </mxCell>
        <mxCell id="nj1rMsaSt0rSjp6L2qjK-29" value="&lt;div&gt;reps_vs_reps&lt;/div&gt;&lt;div&gt;_matches.tsv&lt;/div&gt;" style="strokeWidth=2;html=1;shape=mxgraph.flowchart.multi-document;whiteSpace=wrap;fillColor=#f8cecc;strokeColor=#b85450;" parent="1" vertex="1">
          <mxGeometry x="640" y="150" width="110" height="60" as="geometry" />
        </mxCell>
        <mxCell id="nj1rMsaSt0rSjp6L2qjK-31" value="Remove matched Loci" style="rounded=1;whiteSpace=wrap;html=1;absoluteArcSize=1;arcSize=14;strokeWidth=2;fillColor=#dae8fc;strokeColor=#6c8ebf;" parent="1" vertex="1">
          <mxGeometry x="186" y="145" width="72" height="70" as="geometry" />
        </mxCell>
        <mxCell id="nj1rMsaSt0rSjp6L2qjK-32" style="edgeStyle=orthogonalEdgeStyle;rounded=0;orthogonalLoop=1;jettySize=auto;html=1;entryX=0.324;entryY=0.969;entryDx=0;entryDy=0;entryPerimeter=0;" parent="1" target="v3M7lqjooFDRWO9AKOZ7-9" edge="1">
          <mxGeometry relative="1" as="geometry">
            <mxPoint x="127" as="sourcePoint" />
            <mxPoint x="164" y="220" as="targetPoint" />
            <Array as="points">
              <mxPoint x="127" y="10" />
              <mxPoint x="127" y="10" />
            </Array>
          </mxGeometry>
        </mxCell>
        <mxCell id="nj1rMsaSt0rSjp6L2qjK-33" style="edgeStyle=orthogonalEdgeStyle;rounded=0;orthogonalLoop=1;jettySize=auto;html=1;entryX=1;entryY=0.5;entryDx=0;entryDy=0;" parent="1" target="nj1rMsaSt0rSjp6L2qjK-31" edge="1">
          <mxGeometry relative="1" as="geometry">
            <mxPoint x="260" y="180" as="sourcePoint" />
            <mxPoint x="505" y="290" as="targetPoint" />
          </mxGeometry>
        </mxCell>
        <mxCell id="nj1rMsaSt0rSjp6L2qjK-36" value="&lt;div&gt;reps_vs_alleles&lt;/div&gt;&lt;div&gt;_matches.tsv&lt;/div&gt;" style="strokeWidth=2;html=1;shape=mxgraph.flowchart.multi-document;whiteSpace=wrap;fillColor=#f8cecc;strokeColor=#b85450;" parent="1" vertex="1">
          <mxGeometry x="650" y="310" width="110" height="60" as="geometry" />
        </mxCell>
        <mxCell id="nj1rMsaSt0rSjp6L2qjK-38" style="edgeStyle=orthogonalEdgeStyle;rounded=0;orthogonalLoop=1;jettySize=auto;html=1;entryX=0;entryY=0.5;entryDx=0;entryDy=0;exitX=1;exitY=0.5;exitDx=0;exitDy=0;exitPerimeter=0;entryPerimeter=0;" parent="1" source="nj1rMsaSt0rSjp6L2qjK-7" target="v3M7lqjooFDRWO9AKOZ7-30" edge="1">
          <mxGeometry relative="1" as="geometry">
            <mxPoint x="830" y="40" as="sourcePoint" />
            <mxPoint x="545" y="325" as="targetPoint" />
          </mxGeometry>
        </mxCell>
        <mxCell id="nj1rMsaSt0rSjp6L2qjK-48" style="edgeStyle=orthogonalEdgeStyle;rounded=0;orthogonalLoop=1;jettySize=auto;html=1;entryX=0;entryY=0.5;entryDx=0;entryDy=0;entryPerimeter=0;" parent="1" source="nj1rMsaSt0rSjp6L2qjK-17" target="v3M7lqjooFDRWO9AKOZ7-30" edge="1">
          <mxGeometry relative="1" as="geometry" />
        </mxCell>
        <mxCell id="nj1rMsaSt0rSjp6L2qjK-49" style="edgeStyle=orthogonalEdgeStyle;rounded=0;orthogonalLoop=1;jettySize=auto;html=1;entryX=0;entryY=0.5;entryDx=0;entryDy=0;entryPerimeter=0;exitX=1;exitY=0.5;exitDx=0;exitDy=0;exitPerimeter=0;" parent="1" source="nj1rMsaSt0rSjp6L2qjK-29" target="v3M7lqjooFDRWO9AKOZ7-30" edge="1">
          <mxGeometry relative="1" as="geometry">
            <Array as="points">
              <mxPoint x="810" y="180" />
              <mxPoint x="810" y="30" />
            </Array>
          </mxGeometry>
        </mxCell>
        <mxCell id="nj1rMsaSt0rSjp6L2qjK-54" style="edgeStyle=orthogonalEdgeStyle;rounded=0;orthogonalLoop=1;jettySize=auto;html=1;entryX=0;entryY=0.5;entryDx=0;entryDy=0;entryPerimeter=0;" parent="1" source="nj1rMsaSt0rSjp6L2qjK-36" target="v3M7lqjooFDRWO9AKOZ7-30" edge="1">
          <mxGeometry relative="1" as="geometry">
            <Array as="points">
              <mxPoint x="810" y="330" />
              <mxPoint x="810" y="30" />
            </Array>
          </mxGeometry>
        </mxCell>
        <mxCell id="nj1rMsaSt0rSjp6L2qjK-55" value="&lt;div&gt;unmatched.tsv&lt;/div&gt;" style="strokeWidth=2;html=1;shape=mxgraph.flowchart.multi-document;whiteSpace=wrap;fillColor=#f8cecc;strokeColor=#b85450;" parent="1" vertex="1">
          <mxGeometry x="650" y="390" width="110" height="60" as="geometry" />
        </mxCell>
        <mxCell id="nj1rMsaSt0rSjp6L2qjK-57" style="edgeStyle=orthogonalEdgeStyle;rounded=0;orthogonalLoop=1;jettySize=auto;html=1;entryX=0;entryY=0.5;entryDx=0;entryDy=0;exitX=1;exitY=0.5;exitDx=0;exitDy=0;exitPerimeter=0;entryPerimeter=0;" parent="1" source="nj1rMsaSt0rSjp6L2qjK-55" target="v3M7lqjooFDRWO9AKOZ7-30" edge="1">
          <mxGeometry relative="1" as="geometry">
            <mxPoint x="405" y="440" as="sourcePoint" />
            <mxPoint x="555" y="335" as="targetPoint" />
            <Array as="points">
              <mxPoint x="810" y="420" />
              <mxPoint x="810" y="30" />
            </Array>
          </mxGeometry>
        </mxCell>
        <mxCell id="7UviSky1n7xma9Ypp7IQ-4" value="" style="endArrow=none;dashed=1;html=1;rounded=0;entryX=0.298;entryY=0.987;entryDx=0;entryDy=0;entryPerimeter=0;exitX=0.5;exitY=0;exitDx=0;exitDy=0;" edge="1" parent="1" source="v3M7lqjooFDRWO9AKOZ7-1" target="v3M7lqjooFDRWO9AKOZ7-4">
          <mxGeometry width="50" height="50" relative="1" as="geometry">
            <mxPoint x="170" y="-210" as="sourcePoint" />
            <mxPoint x="450" y="-140" as="targetPoint" />
          </mxGeometry>
        </mxCell>
        <mxCell id="7UviSky1n7xma9Ypp7IQ-5" value="" style="endArrow=none;dashed=1;html=1;rounded=0;entryX=0.5;entryY=0.88;entryDx=0;entryDy=0;entryPerimeter=0;exitX=0.5;exitY=0;exitDx=0;exitDy=0;" edge="1" parent="1" source="BJneLO5AT9rQKqXg1MKZ-1" target="v3M7lqjooFDRWO9AKOZ7-2">
          <mxGeometry width="50" height="50" relative="1" as="geometry">
            <mxPoint x="520" y="-159" as="sourcePoint" />
            <mxPoint x="520" y="-240" as="targetPoint" />
          </mxGeometry>
        </mxCell>
        <mxCell id="7UviSky1n7xma9Ypp7IQ-6" value="" style="endArrow=none;dashed=1;html=1;rounded=0;entryX=0.301;entryY=1.007;entryDx=0;entryDy=0;entryPerimeter=0;exitX=1;exitY=0.5;exitDx=0;exitDy=0;" edge="1" parent="1" source="nj1rMsaSt0rSjp6L2qjK-4" target="5TrfwjtMTBCjRm45PCtT-1">
          <mxGeometry width="50" height="50" relative="1" as="geometry">
            <mxPoint x="290" y="-220" as="sourcePoint" />
            <mxPoint x="330" y="-210" as="targetPoint" />
            <Array as="points">
              <mxPoint x="330" y="-215" />
            </Array>
          </mxGeometry>
        </mxCell>
        <mxCell id="7UviSky1n7xma9Ypp7IQ-7" value="" style="endArrow=none;dashed=1;html=1;rounded=0;entryX=0.605;entryY=0.892;entryDx=0;entryDy=0;entryPerimeter=0;exitX=0;exitY=0.5;exitDx=0;exitDy=0;" edge="1" parent="1" source="nj1rMsaSt0rSjp6L2qjK-4" target="v3M7lqjooFDRWO9AKOZ7-4">
          <mxGeometry width="50" height="50" relative="1" as="geometry">
            <mxPoint x="310" y="-89" as="sourcePoint" />
            <mxPoint x="310" y="-170" as="targetPoint" />
            <Array as="points">
              <mxPoint x="173" y="-215" />
            </Array>
          </mxGeometry>
        </mxCell>
        <mxCell id="7UviSky1n7xma9Ypp7IQ-8" value="" style="endArrow=none;dashed=1;html=1;rounded=0;entryX=0.5;entryY=1;entryDx=0;entryDy=0;exitX=0.5;exitY=0;exitDx=0;exitDy=0;exitPerimeter=0;" edge="1" parent="1" source="v3M7lqjooFDRWO9AKOZ7-9" target="v3M7lqjooFDRWO9AKOZ7-1">
          <mxGeometry width="50" height="50" relative="1" as="geometry">
            <mxPoint x="230" y="-29" as="sourcePoint" />
            <mxPoint x="230" y="-110" as="targetPoint" />
          </mxGeometry>
        </mxCell>
        <mxCell id="7UviSky1n7xma9Ypp7IQ-9" style="edgeStyle=orthogonalEdgeStyle;rounded=0;orthogonalLoop=1;jettySize=auto;html=1;entryX=0.5;entryY=0;entryDx=0;entryDy=0;entryPerimeter=0;" edge="1" parent="1" target="v3M7lqjooFDRWO9AKOZ7-13">
          <mxGeometry relative="1" as="geometry">
            <mxPoint x="514" y="-90" as="sourcePoint" />
            <mxPoint x="510" y="-80" as="targetPoint" />
          </mxGeometry>
        </mxCell>
        <mxCell id="7UviSky1n7xma9Ypp7IQ-10" value="" style="endArrow=none;dashed=1;html=1;rounded=0;entryX=0.5;entryY=1;entryDx=0;entryDy=0;exitX=0.5;exitY=0;exitDx=0;exitDy=0;exitPerimeter=0;" edge="1" parent="1" source="v3M7lqjooFDRWO9AKOZ7-13" target="BJneLO5AT9rQKqXg1MKZ-1">
          <mxGeometry width="50" height="50" relative="1" as="geometry">
            <mxPoint x="514" y="-90" as="sourcePoint" />
            <mxPoint x="510" y="-110" as="targetPoint" />
          </mxGeometry>
        </mxCell>
        <mxCell id="7UviSky1n7xma9Ypp7IQ-19" value="" style="endArrow=none;dashed=1;html=1;rounded=0;entryX=0;entryY=0.5;entryDx=0;entryDy=0;exitX=1;exitY=0.5;exitDx=0;exitDy=0;" edge="1" parent="1" source="nj1rMsaSt0rSjp6L2qjK-14" target="-6ODBfF8vpPR5T03z-hk-1">
          <mxGeometry width="50" height="50" relative="1" as="geometry">
            <mxPoint x="300" y="110" as="sourcePoint" />
            <mxPoint x="350" y="60" as="targetPoint" />
          </mxGeometry>
        </mxCell>
        <mxCell id="7UviSky1n7xma9Ypp7IQ-20" value="" style="endArrow=none;dashed=1;html=1;rounded=0;entryX=0;entryY=0.5;entryDx=0;entryDy=0;exitX=0.7;exitY=0.854;exitDx=0;exitDy=0;exitPerimeter=0;" edge="1" parent="1" source="v3M7lqjooFDRWO9AKOZ7-9" target="nj1rMsaSt0rSjp6L2qjK-14">
          <mxGeometry width="50" height="50" relative="1" as="geometry">
            <mxPoint x="170" y="60" as="sourcePoint" />
            <mxPoint x="220" y="10" as="targetPoint" />
            <Array as="points">
              <mxPoint x="168" y="30" />
            </Array>
          </mxGeometry>
        </mxCell>
        <mxCell id="7UviSky1n7xma9Ypp7IQ-21" value="" style="endArrow=none;dashed=1;html=1;rounded=0;entryX=0;entryY=0.5;entryDx=0;entryDy=0;exitX=1;exitY=0.5;exitDx=0;exitDy=0;" edge="1" parent="1" source="nj1rMsaSt0rSjp6L2qjK-31" target="v3M7lqjooFDRWO9AKOZ7-24">
          <mxGeometry width="50" height="50" relative="1" as="geometry">
            <mxPoint x="270" y="250" as="sourcePoint" />
            <mxPoint x="320" y="200" as="targetPoint" />
          </mxGeometry>
        </mxCell>
        <mxCell id="7UviSky1n7xma9Ypp7IQ-22" value="" style="endArrow=none;dashed=1;html=1;rounded=0;entryX=0;entryY=0.5;entryDx=0;entryDy=0;exitX=0.323;exitY=0.98;exitDx=0;exitDy=0;exitPerimeter=0;" edge="1" parent="1" source="v3M7lqjooFDRWO9AKOZ7-9" target="nj1rMsaSt0rSjp6L2qjK-31">
          <mxGeometry width="50" height="50" relative="1" as="geometry">
            <mxPoint x="110" y="60" as="sourcePoint" />
            <mxPoint x="170" y="150" as="targetPoint" />
            <Array as="points">
              <mxPoint x="127" y="180" />
            </Array>
          </mxGeometry>
        </mxCell>
        <mxCell id="7UviSky1n7xma9Ypp7IQ-23" style="edgeStyle=orthogonalEdgeStyle;rounded=0;orthogonalLoop=1;jettySize=auto;html=1;entryX=0;entryY=0.5;entryDx=0;entryDy=0;entryPerimeter=0;" edge="1" parent="1" source="v3M7lqjooFDRWO9AKOZ7-24" target="nj1rMsaSt0rSjp6L2qjK-29">
          <mxGeometry relative="1" as="geometry" />
        </mxCell>
        <mxCell id="7UviSky1n7xma9Ypp7IQ-28" value="" style="endArrow=classic;html=1;rounded=0;exitX=0.135;exitY=0.979;exitDx=0;exitDy=0;exitPerimeter=0;entryX=0.5;entryY=0;entryDx=0;entryDy=0;" edge="1" parent="1" source="v3M7lqjooFDRWO9AKOZ7-9" target="-6ODBfF8vpPR5T03z-hk-6">
          <mxGeometry width="50" height="50" relative="1" as="geometry">
            <mxPoint x="120" y="60" as="sourcePoint" />
            <mxPoint x="100" y="150" as="targetPoint" />
            <Array as="points">
              <mxPoint x="106" y="250" />
              <mxPoint x="350" y="250" />
            </Array>
          </mxGeometry>
        </mxCell>
        <mxCell id="7UviSky1n7xma9Ypp7IQ-29" value="" style="endArrow=classic;html=1;rounded=0;exitX=0.596;exitY=0.847;exitDx=0;exitDy=0;exitPerimeter=0;entryX=0.5;entryY=0;entryDx=0;entryDy=0;" edge="1" parent="1" source="v3M7lqjooFDRWO9AKOZ7-13" target="-6ODBfF8vpPR5T03z-hk-6">
          <mxGeometry width="50" height="50" relative="1" as="geometry">
            <mxPoint x="190" y="240" as="sourcePoint" />
            <mxPoint x="240" y="190" as="targetPoint" />
            <Array as="points">
              <mxPoint x="526" y="250" />
              <mxPoint x="350" y="250" />
            </Array>
          </mxGeometry>
        </mxCell>
        <mxCell id="7UviSky1n7xma9Ypp7IQ-30" style="edgeStyle=orthogonalEdgeStyle;rounded=0;orthogonalLoop=1;jettySize=auto;html=1;entryX=0;entryY=0.5;entryDx=0;entryDy=0;entryPerimeter=0;" edge="1" parent="1" source="-6ODBfF8vpPR5T03z-hk-6" target="nj1rMsaSt0rSjp6L2qjK-36">
          <mxGeometry relative="1" as="geometry" />
        </mxCell>
        <mxCell id="7UviSky1n7xma9Ypp7IQ-32" style="edgeStyle=orthogonalEdgeStyle;rounded=0;orthogonalLoop=1;jettySize=auto;html=1;entryX=0;entryY=0.5;entryDx=0;entryDy=0;entryPerimeter=0;" edge="1" parent="1" source="-6ODBfF8vpPR5T03z-hk-6" target="nj1rMsaSt0rSjp6L2qjK-55">
          <mxGeometry relative="1" as="geometry">
            <Array as="points">
              <mxPoint x="570" y="340" />
              <mxPoint x="570" y="420" />
            </Array>
          </mxGeometry>
        </mxCell>
        <mxCell id="7UviSky1n7xma9Ypp7IQ-33" value="&lt;div&gt;unmatched.tsv&lt;/div&gt;" style="strokeWidth=2;html=1;shape=mxgraph.flowchart.multi-document;whiteSpace=wrap;fillColor=#f8cecc;strokeColor=#b85450;" vertex="1" parent="1">
          <mxGeometry x="640" y="220" width="110" height="60" as="geometry" />
        </mxCell>
        <mxCell id="7UviSky1n7xma9Ypp7IQ-34" style="edgeStyle=orthogonalEdgeStyle;rounded=0;orthogonalLoop=1;jettySize=auto;html=1;entryX=0;entryY=0.5;entryDx=0;entryDy=0;entryPerimeter=0;" edge="1" parent="1" source="v3M7lqjooFDRWO9AKOZ7-24" target="7UviSky1n7xma9Ypp7IQ-33">
          <mxGeometry relative="1" as="geometry">
            <Array as="points">
              <mxPoint x="570" y="180" />
              <mxPoint x="570" y="250" />
            </Array>
          </mxGeometry>
        </mxCell>
        <mxCell id="7UviSky1n7xma9Ypp7IQ-35" style="edgeStyle=orthogonalEdgeStyle;rounded=0;orthogonalLoop=1;jettySize=auto;html=1;entryX=0;entryY=0.5;entryDx=0;entryDy=0;entryPerimeter=0;" edge="1" parent="1" source="7UviSky1n7xma9Ypp7IQ-33" target="v3M7lqjooFDRWO9AKOZ7-30">
          <mxGeometry relative="1" as="geometry" />
        </mxCell>
        <mxCell id="7UviSky1n7xma9Ypp7IQ-36" value="&lt;pre style=&quot;box-sizing: border-box; line-height: 1.4; font-family: SFMono-Regular, Menlo, Monaco, Consolas, &amp;quot;Liberation Mono&amp;quot;, &amp;quot;Courier New&amp;quot;, Courier, monospace; margin: 0px; padding: 12px; overflow: auto; color: rgb(64, 64, 64); text-align: start;&quot; id=&quot;codecell2&quot;&gt;--rep-vs-alleles:&lt;/pre&gt;" style="text;html=1;align=center;verticalAlign=middle;resizable=0;points=[];autosize=1;strokeColor=none;fillColor=none;" vertex="1" parent="1">
          <mxGeometry x="190" y="250" width="160" height="50" as="geometry" />
        </mxCell>
      </root>
    </mxGraphModel>
  </diagram>
</mxfile>
